<svg xmlns="http://www.w3.org/2000/svg" width="268.295" height="54.174" viewBox="0 0 268.295 54.174">
  <g id="logo" transform="translate(-611 570.829)">
    <path id="svg-path" d="M9.785,40.254a10.916,10.916,0,0,1-5.117-1.484,7.892,7.892,0,0,1-3.613-4.141l3.984-1.465a4,4,0,0,0,2.012,2.09,7.184,7.184,0,0,0,2.93.762,5.85,5.85,0,0,0,4.043-1.191,3.439,3.439,0,0,0,1.426-2.5q.117-2.676-5.606-4.277-8.965-2.52-8.691-8.535A7.281,7.281,0,0,1,4.766,13.2a10.8,10.8,0,0,1,6.289-1.426A9.908,9.908,0,0,1,18.2,14.883L15.1,17.773a5.864,5.864,0,0,0-4.238-1.758A7.594,7.594,0,0,0,7.6,16.5a3.389,3.389,0,0,0-2.207,3.2Q5.274,22.344,11,23.945q5.156,1.445,7.3,4.258a6.5,6.5,0,0,1,1.387,4.316,7.475,7.475,0,0,1-3.008,5.625,9.865,9.865,0,0,1-6.367,2.129q-.273,0-.527-.02Zm17.578-16.27h6.074a3.834,3.834,0,0,0,3.828-3.828,3.759,3.759,0,0,0-1.113-2.734,3.7,3.7,0,0,0-2.715-1.133H27.363v7.7Zm0,16.016H23.125V12.051H33.438a7.74,7.74,0,0,1,5.7,2.383,7.762,7.762,0,0,1,2.383,5.723,8.1,8.1,0,0,1-8.086,8.066H27.364V40ZM51.836,12.051,34.16,40h5.02L43.3,33.477h9.492V40h4.258V12.051H51.836Zm.957,6.426V29.239H45.977Zm14.98,14.609a9.635,9.635,0,0,1-2.93-7.07,9.635,9.635,0,0,1,2.93-7.07A9.6,9.6,0,0,1,74.844,16a9.712,9.712,0,0,1,4.746,1.211V12.559a14.361,14.361,0,0,0-4.746-.8,13.735,13.735,0,0,0-10.078,4.18,13.735,13.735,0,0,0-4.18,10.078,13.735,13.735,0,0,0,4.18,10.078,13.735,13.735,0,0,0,10.078,4.18,14.052,14.052,0,0,0,4.746-.82V34.824a9.837,9.837,0,0,1-4.746,1.191,9.634,9.634,0,0,1-7.07-2.93ZM83.105,12.051V40H97.364V35.762H87.344V28.105h7.734V23.867H87.344V16.289h10.02V12.051H83.106Zm33.751,0v19.98l-11.934-19.98h-4.434V40h4.238V20.02L116.68,40h4.434V12.051h-4.258Zm8.671,0V40h14.258V35.762h-10.02V28.105H137.5V23.867h-7.734V16.289h10.02V12.051H125.527Zm17.871,0V40h5.2l12.383-21.035V40h5.2l16.465-27.949h-4.922l-12.48,21.191V12.051h-5.117l-12.48,21.191V12.051H143.4Zm49.043,28.2a10.916,10.916,0,0,1-5.117-1.484,7.892,7.892,0,0,1-3.613-4.141l3.984-1.465a4,4,0,0,0,2.012,2.09,7.184,7.184,0,0,0,2.93.762,5.85,5.85,0,0,0,4.043-1.191,3.439,3.439,0,0,0,1.426-2.5q.117-2.676-5.605-4.277-8.965-2.52-8.691-8.535a7.281,7.281,0,0,1,3.613-6.309,10.8,10.8,0,0,1,6.289-1.426,9.908,9.908,0,0,1,7.148,3.106l-3.105,2.891a5.864,5.864,0,0,0-4.238-1.758,7.594,7.594,0,0,0-3.262.488,3.389,3.389,0,0,0-2.207,3.2q-.117,2.637,5.605,4.238,5.156,1.445,7.3,4.258a6.5,6.5,0,0,1,1.387,4.316,7.475,7.475,0,0,1-3.008,5.625,9.865,9.865,0,0,1-6.367,2.129q-.273,0-.527-.02Z" transform="translate(676.945 -569.758)" fill="#fff"/>
    <path id="svg-path_1_" data-name="svg-path (1)" d="M32.574,29.789a5.535,5.535,0,0,0,1.358-.17A5.514,5.514,0,0,0,32.58,18.762a5.533,5.533,0,0,0-1.36.17,5.513,5.513,0,0,0,1.354,10.857Zm-3.447-7.567a4.013,4.013,0,1,1,4.436,5.941,4.009,4.009,0,0,1-4.876-2.9A3.987,3.987,0,0,1,29.127,22.222Zm47.39,28.134c.034-2.521-1.548-4.928-4.557-6.982a.25.25,0,0,1-.009-.025c-.145-.475-.307-.941-.48-1.4-.109-.292-.224-.58-.345-.867q-.24-.567-.511-1.117c-.042-.086-.076-.176-.119-.261.753-3.506.276-6.38-1.5-8.2-1.754-1.8-4.568-2.388-8.141-1.718a22.655,22.655,0,0,0-7-2.4l-.1-.018c-.3-.05-.609-.092-.916-.129-.1-.012-.189-.025-.285-.035-.257-.028-.515-.05-.772-.07-.143-.011-.284-.023-.428-.032-.226-.013-.452-.02-.679-.026-.123,0-.245-.013-.369-.014l-.284,0h-.046c-.7,0-1.387.037-2.069.1-.069.006-.139.009-.208.016-.61.062-1.21.153-1.806.263-.2.035-.392.071-.587.111-.458.1-.911.21-1.359.334s-.86.253-1.285.4c-.2.069-.408.139-.609.214A22.666,22.666,0,0,0,29.53,39.7c-.139.272-.27.549-.4.827-.145.319-.285.639-.415.963-.169.419-.328.843-.473,1.274-3.08,1.976-4.729,4.352-4.761,6.877s1.6,4.942,4.552,6.971A22.682,22.682,0,0,0,29.5,60.289c-.774,3.563-.259,6.4,1.5,8.209a7.359,7.359,0,0,0,5.462,1.981,14.817,14.817,0,0,0,2.666-.271q.865.468,1.769.856l.055.024q.991.426,2.022.754c.026.008.051.018.077.025.677.215,1.366.395,2.063.545l.117.027c.685.144,1.379.254,2.081.335.055.007.11.015.166.021.689.075,1.386.117,2.088.13.043,0,.084.007.127.008l.256,0H50l.035,0c.69,0,1.372-.036,2.048-.1.072-.007.145-.01.217-.017.611-.062,1.214-.154,1.811-.264.185-.033.368-.065.551-.1.474-.1.94-.217,1.4-.345.41-.112.814-.24,1.218-.375.229-.077.456-.154.681-.238A22.794,22.794,0,0,0,71.4,58.208c.046-.12.09-.241.135-.361.074-.2.158-.4.227-.608C74.734,55.325,76.481,52.961,76.517,50.356ZM27.468,54.309a6.279,6.279,0,0,1-2.484-4.645A6.325,6.325,0,0,1,27.6,45.1a22.737,22.737,0,0,0-.531,4.593A23.146,23.146,0,0,0,27.468,54.309ZM67.927,32.547A6.286,6.286,0,0,1,69.3,37.6c-.105-.163-.227-.316-.336-.477q-.35-.514-.728-1.007-.284-.374-.584-.736-.452-.543-.934-1.057c-.1-.1-.184-.219-.284-.322a23.277,23.277,0,0,0-3.52-2.966A6.305,6.305,0,0,1,67.927,32.547ZM29.349,55.717a21.587,21.587,0,0,1-.376-9.783c.022-.113.034-.23.058-.344.075-.36.182-.713.276-1.069s.171-.694.28-1.032c.043-.136.1-.269.147-.4a21.567,21.567,0,0,1,17.953-14.39c.054-.006.107-.018.161-.023A21.222,21.222,0,0,1,50,28.563h.014c.366,0,.724.036,1.086.054.42.021.842.035,1.255.081.254.027.5.077.754.113.475.069.95.136,1.413.236.155.033.306.08.459.117.555.132,1.106.272,1.644.447.046.015.09.034.136.049A21.536,21.536,0,0,1,68.907,39.915,26.612,26.612,0,0,1,66.3,46.25a4.784,4.784,0,0,0-1.893-.4,4.816,4.816,0,0,0-3.538,8.082c-1.088,1.267-2.238,2.51-3.451,3.69-1.056,1.027-2.148,1.985-3.25,2.9-1.406.09-2.845.129-4.309.108a56.047,56.047,0,0,1-6.274-.43,45.514,45.514,0,0,1-7.814-1.648A27.208,27.208,0,0,1,29.349,55.717Zm38.264-5.874a3.317,3.317,0,0,1-2.4,4.025,3.312,3.312,0,1,1-.812-6.524A3.307,3.307,0,0,1,67.613,49.843ZM32.074,67.451a6.313,6.313,0,0,1-1.383-5.062c.378.588.791,1.156,1.225,1.711.038.048.068.1.106.146q.723.909,1.542,1.755c.007.007.015.013.021.02q.772.792,1.606,1.5l.057.051c.56.472,1.141.913,1.737,1.326l.056.04.062.045A6.273,6.273,0,0,1,32.074,67.451Zm7.356,1.2c-.229-.13-.449-.274-.673-.413-.284-.176-.576-.337-.852-.527-.436-.3-.853-.631-1.268-.964-.137-.109-.282-.205-.417-.318q-.821-.691-1.581-1.471a21.606,21.606,0,0,1-1.445-1.643c-.015-.02-.027-.04-.042-.059a21.252,21.252,0,0,1-3.108-5.427,30.635,30.635,0,0,0,5.281,2.158A46.841,46.841,0,0,0,43.4,61.687a57.59,57.59,0,0,0,6.441.441c.28,0,.555.006.833.006.509,0,1.014-.008,1.515-.021a45.252,45.252,0,0,1-6.2,3.993A27.149,27.149,0,0,1,39.43,68.646ZM52.345,71.3c-.063.007-.125.021-.188.027a21.473,21.473,0,0,1-2.146.108H49.98c-.4,0-.783-.037-1.174-.059-.371-.02-.744-.029-1.111-.068-.326-.035-.645-.1-.968-.146-.38-.058-.763-.105-1.138-.184-.3-.062-.589-.149-.884-.225-.388-.1-.779-.187-1.16-.306-.279-.088-.549-.2-.824-.3-.383-.139-.771-.268-1.145-.427-.054-.023-.1-.054-.159-.077a30.672,30.672,0,0,0,5.267-2.21,47.206,47.206,0,0,0,6.913-4.5c.383-.3.758-.625,1.137-.937A40.9,40.9,0,0,0,69.7,58.4,21.568,21.568,0,0,1,52.345,71.3ZM70.49,56.231c-3.308,1.97-8.18,3.438-13.771,4.066.586-.526,1.173-1.052,1.743-1.606,1.261-1.228,2.457-2.521,3.588-3.838a4.791,4.791,0,0,0,2.35.617,4.872,4.872,0,0,0,1.186-.148,4.8,4.8,0,0,0,1.983-8.273,30.82,30.82,0,0,0,2.3-5.1A21.262,21.262,0,0,1,71.041,45.9c0,.023.013.046.017.07.114.6.191,1.209.254,1.823.011.107.034.211.043.319q.093,1.061.08,2.147c0,.009,0,.017,0,.026A21.212,21.212,0,0,1,70.49,56.231Zm1.926-1.348c.03-.143.049-.288.077-.432.116-.582.214-1.171.285-1.768.009-.078.016-.156.024-.233.076-.705.123-1.419.133-2.141h0c.01-.733-.019-1.459-.077-2.176,0-.047,0-.1-.009-.143-.058-.665-.149-1.321-.264-1.969-.018-.1-.03-.2-.049-.305a6.3,6.3,0,0,1,2.479,4.621A6.219,6.219,0,0,1,72.416,54.883Zm-49.059,3.8a1.484,1.484,0,0,0-.321,2.073,1.484,1.484,0,0,0,2.074.323A1.484,1.484,0,0,0,25.432,59,1.522,1.522,0,0,0,23.357,58.683ZM54.56,35.2a1.485,1.485,0,0,0,1.2-2.362,1.527,1.527,0,0,0-2.075-.32,1.485,1.485,0,0,0-.322,2.073A1.492,1.492,0,0,0,54.56,35.2ZM44.231,57.7A1.485,1.485,0,0,0,45.36,55.25a1.525,1.525,0,0,0-2.093-.165,1.485,1.485,0,0,0,.964,2.614ZM74.438,39.022a1.486,1.486,0,0,0,1.273-2.25,1.532,1.532,0,0,0-2.034-.508,1.483,1.483,0,0,0-.513,2.036A1.494,1.494,0,0,0,74.438,39.022Zm.4,22.1a2.256,2.256,0,1,0,2.985,1.122A2.3,2.3,0,0,0,74.836,61.118Zm1.638,2.32a.749.749,0,0,1-.4.422.77.77,0,0,1-1-.376.756.756,0,1,1,1.4-.046ZM79.1,29.131a2.636,2.636,0,0,0-3.513-.879,2.561,2.561,0,0,0-.88,3.514,2.575,2.575,0,0,0,2.2,1.245,2.562,2.562,0,0,0,2.195-3.88Zm-1.166,1.577a1.055,1.055,0,0,1-.484.652A1.083,1.083,0,0,1,76,31a1.061,1.061,0,1,1,1.94-.287ZM40.563,53.421a3.625,3.625,0,0,0-4.706-5.516,3.625,3.625,0,0,0,4.706,5.516Zm-3.969-1.38a2.125,2.125,0,1,1,3.735-1.21,2.112,2.112,0,0,1-.739,1.448A2.183,2.183,0,0,1,36.594,52.041Z" transform="translate(588.25 -589.591)" fill="#fff"/>
  </g>
</svg>
