<svg xmlns="http://www.w3.org/2000/svg" width="30" height="29.971" viewBox="0 0 30 29.971">
  <g id="rocket" transform="translate(-2.404 -2.004)">
    <path id="Path_3" data-name="Path 3" d="M13.445,7.819a3.824,3.824,0,1,1,0,5.408,3.824,3.824,0,0,1,0-5.408ZM17.23,9.44a1.53,1.53,0,1,0,0,2.164,1.53,1.53,0,0,0,0-2.164Z" transform="translate(5.252 2.485)" fill="#fff"/>
    <path id="Path_4" data-name="Path 4" d="M31.623,5.551a4.206,4.206,0,0,0-2.77-2.768l-1.014-.315A10.323,10.323,0,0,0,17.48,5.028L15.957,6.549a5.35,5.35,0,0,0-6.989.5l-1.9,1.9a1.147,1.147,0,0,0,0,1.621L9.5,13.005l-.275.275a2.676,2.676,0,0,0,0,3.785l.759.757L7.851,19.04a1.147,1.147,0,0,0-.242,1.808L13.558,26.8a1.147,1.147,0,0,0,1.806-.243l1.22-2.133.76.76a2.676,2.676,0,0,0,3.785,0l.271-.269,2.432,2.432a1.147,1.147,0,0,0,1.621,0l1.9-1.9a5.348,5.348,0,0,0,.5-6.986l1.526-1.526A10.323,10.323,0,0,0,31.939,6.566l-.315-1.016Zm-3.45-.578a1.912,1.912,0,0,1,1.259,1.259l.317,1.016a8.029,8.029,0,0,1-1.991,8.06l-8.251,8.253a.382.382,0,0,1-.54,0l-8.116-8.118a.382.382,0,0,1,0-.54L19.1,6.647a8.029,8.029,0,0,1,8.058-1.99l1.012.314ZM26.2,20.107a3.054,3.054,0,0,1-.471,3.712l-1.089,1.089-1.621-1.62ZM10.592,8.672A3.056,3.056,0,0,1,14.305,8.2l-3.181,3.181L9.5,9.761ZM14.9,22.74l-.786,1.372-3.823-3.823,1.373-.783L14.9,22.74ZM8.959,27.072A1.147,1.147,0,1,0,7.337,25.45L3.551,29.235a1.147,1.147,0,1,0,1.623,1.621Zm-2.975-4.6a1.147,1.147,0,0,1,0,1.621L4.363,25.719A1.147,1.147,0,1,1,2.74,24.1l1.621-1.621a1.147,1.147,0,0,1,1.623,0Zm5.945,7.572a1.147,1.147,0,1,0-1.621-1.621l-1.62,1.618a1.147,1.147,0,0,0,1.621,1.621l1.621-1.618Z" fill="#fff"/>
  </g>
</svg>
