<svg xmlns="http://www.w3.org/2000/svg" xmlns:xlink="http://www.w3.org/1999/xlink" width="1965" height="435.709" viewBox="0 0 1965 435.709">
  <defs>
    <linearGradient id="linear-gradient" x1="1" y1="0.5" x2="0" y2="0.5" gradientUnits="objectBoundingBox">
      <stop offset="0" stop-color="#508ad5"/>
      <stop offset="1" stop-color="#4f47bb"/>
    </linearGradient>
    <filter id="articles" x="0" y="0" width="1965" height="435.709" filterUnits="userSpaceOnUse">
      <feOffset dy="6" input="SourceAlpha"/>
      <feGaussianBlur stdDeviation="7.5" result="blur"/>
      <feFlood flood-color="#508ad5" flood-opacity="0.012"/>
      <feComposite operator="in" in2="blur"/>
      <feComposite in="SourceGraphic"/>
    </filter>
  </defs>
  <g transform="matrix(1, 0, 0, 1, 0, 0)" filter="url(#articles)">
    <path id="articles-2" data-name="articles" d="M-5923,331.191l-64-21.449V21.3l64-5.3c64-5.7,192-15.7,320-16,128,.3,256,10.3,384,53.3s256,117,384,128,256-43,384-58.7c128-16.3,256,5.7,320,16l64,10.7V277.522l-64,16.11c-64,16.11-192,48.332-320,64.444a1531.528,1531.528,0,0,1-384,0c-128-16.112-256-48.334-384-37.559-128,10.372-256,64.746-384,69.779q-10.641.419-21.26.413C-5744.98,390.707-5862.546,351.83-5923,331.191Z" transform="translate(6009.5 16.5)" fill="url(#linear-gradient)"/>
  </g>
</svg>
